<svg width="887" height="500" viewBox="0 0 887 500" fill="none" xmlns="http://www.w3.org/2000/svg">
<path d="M146.8 44.8C119.333 50.6667 96.9333 71.8667 90 98C86.8 110.533 87.3333 127.6 91.4666 139.733C108.533 190.8 171.333 207.467 210.533 171.2C226.8 156.267 234.667 138.667 234.667 117.733C234.667 111.2 233.733 102.4 232.667 98C225.733 71.7333 202.933 50.5333 175.333 44.6667C164 42.2667 158 42.2667 146.8 44.8ZM169.733 62.6667C190.8 66.1333 209.2 82.5333 214.667 102.933C217.333 113.067 215.867 129.733 211.467 139.6C206.267 150.933 192.933 163.867 182 167.867C166.533 173.6 149.2 172.667 134.8 165.333C126.667 161.333 116.133 149.733 111.467 140C104.133 124.667 105.2 103.6 113.867 88.8C121.2 76.2667 137.467 65.0667 151.733 62.6667C160.667 61.2 161.067 61.2 169.733 62.6667Z" fill="#2512A6"/>
<path d="M617.2 98.4C598.667 104.533 584.133 120.8 580.133 139.733C579.2 144.267 578.667 164.8 578.667 196.4C578.667 251.333 579.2 256.4 586.8 268.267C606.933 299.6 645.733 304.667 670.933 279.467C678.933 271.467 684.8 260.8 686.667 250.533C687.467 246.667 688 222 688 195.467C688 142.933 687.2 136.4 680.4 123.6C675.733 115.2 664 104.533 654.667 100.267C644.667 95.7333 627.867 94.9333 617.2 98.4ZM646.667 134.133C649.733 136.933 652.533 140.933 653.333 143.733C654.133 146.667 654.667 168.267 654.667 196.4C654.667 249.2 654.667 249.6 646.267 256.933C637.2 264.8 626.533 264 618.133 254.667C615.6 251.867 613.067 247.467 612.667 245.067C612.267 242.667 612 218.667 612.267 191.733C612.667 144.533 612.8 142.667 615.467 139.067C620.4 132.4 626.267 129.333 634.133 129.333C640.533 129.333 642 129.867 646.667 134.133Z" fill="#2512A6"/>
<path d="M746 97.7333C728.4 103.6 715.067 116.933 709.467 134.267C706.533 143.2 706.533 144.667 706.933 198.8L707.333 254.133L712.4 264.267C723.333 286.533 745.467 298.4 769.2 294.533C786.667 291.733 804.4 277.6 810.933 261.467C813.733 254.667 814 251.467 814.4 222.933L814.8 192H788.133H761.333V208.667V225.333H771.333H781.333V236.533C781.333 248.533 779.2 253.467 772 258.933C763.067 265.467 749.467 262 743.333 251.467L740 245.733V195.333V144.933L743.333 139.2C749.733 128.133 762.933 125.2 772.667 132.533C778.8 137.2 781.333 143.467 781.333 153.867C781.333 164.8 781.333 164.8 800.667 164.267L815.067 163.867L814.4 149.6C813.867 137.067 813.333 134.267 809.6 126.533C804.133 115.067 792.533 104.133 781.733 99.8667C772.267 96.2667 753.867 95.2 746 97.7333Z" fill="#2512A6"/>
<path d="M345.333 195.2V291.733L365.067 292.667C393.2 294.133 409.6 292.267 422 286.133C454.667 270 464 227.067 441.2 198.267L437.067 193.2L441.867 188C467.867 159.2 454.267 113.067 416.267 101.333C408.8 98.9334 403.867 98.6667 376.533 98.6667H345.333V195.2ZM411.2 134.667C420.4 140.267 424.533 151.733 420.667 160.8C415.733 172.667 409.333 176 391.333 176H378.667V154.267C378.667 142.267 379.067 132 379.733 131.467C380.267 130.8 386.533 130.667 393.6 131.067C403.733 131.6 407.6 132.4 411.2 134.667ZM405.733 211.2C413.333 214.267 421.333 226 421.333 234C421.333 238.267 418 246 414.4 250.133C408.4 256.933 403.867 258.8 390.533 259.6L378.667 260.4V234.8V209.333H390C396.533 209.333 403.2 210.133 405.733 211.2Z" fill="#2512A6"/>
<path d="M475.6 99.6C475.067 100 474.667 143.467 474.667 196.133V291.733L497.733 292.667C515.2 293.467 563.6 293.067 566.4 292.133C566.533 292 566.667 284.533 566.667 275.333V258.667H537.333H508V178.667V98.6667H492.267C483.6 98.6667 476 99.0667 475.6 99.6Z" fill="#2512A6"/>
<path d="M128.667 216.533C70.8 227.6 33.4666 258.533 26.6666 301.333C26 306.133 25.3333 321.733 25.3333 336C25.3333 363.867 25.6 364.933 32.6666 370.933C39.7333 377.067 44.6666 377.467 99.0667 377.067C147.333 376.667 150.533 376.533 153.2 374.133C156.8 370.933 156.8 364.8 153.333 361.333C150.8 358.8 148.933 358.667 98.9333 358.667C60.5333 358.667 46.8 358.267 45.6 357.067C43.6 355.067 43.4666 315.2 45.3333 302.667C47.6 288.8 53.4666 278.267 65.8666 266C81.8666 250.267 101.867 240.667 129.733 235.333C144.267 232.533 178.4 232.533 192.667 235.333C228.133 242.133 256.133 258.8 269.333 281.2C275.733 292 277.333 298 278.4 315.067C279.2 327.333 279.6 328.533 282.8 330.933C290.133 336.4 297.333 330 297.333 318.133C297.333 270.267 265.067 234.667 208 219.6C193.733 215.867 190.667 215.6 165.333 215.2C146.4 214.933 135.067 215.333 128.667 216.533Z" fill="#2512A6"/>
<path d="M234.933 315.067C232.133 318 232 319.467 232 338.4V358.667H211.333C191.867 358.667 190.667 358.8 188 361.6C184.667 365.2 184.533 369.467 187.867 373.467C190.267 376.533 191.2 376.667 211.2 377.067L232 377.467V397.467C232 417.067 232 417.467 235.467 420.8C238 423.467 239.6 424 242.4 423.467C249.867 421.6 250.667 418.933 250.667 397.333V377.467L271.467 377.067C291.467 376.667 292.4 376.533 294.8 373.467C298 369.467 298 366.533 294.533 362.133L291.867 358.667H271.2H250.667V338.667C250.667 319.067 250.533 318.4 247.333 315.333C243.333 311.2 238.667 311.067 234.933 315.067Z" fill="#2512A6"/>
<path d="M353.357 340.08C350.823 340.08 348.97 339.813 347.797 339.28C346.623 338.747 345.837 337.853 345.437 336.6C345.063 335.32 344.877 333.36 344.877 330.72C344.877 327.707 345.01 324.907 345.277 322.32C345.57 319.733 345.983 316.84 346.517 313.64C346.597 313.107 346.863 312.68 347.317 312.36C347.77 312.013 348.37 311.84 349.117 311.84C349.863 311.84 350.423 312.027 350.797 312.4C351.197 312.773 351.397 313.267 351.397 313.88C351.397 314.173 351.383 314.387 351.357 314.52C350.743 318.253 350.29 321.253 349.997 323.52C349.73 325.787 349.597 328.227 349.597 330.84C349.597 332.28 349.663 333.347 349.797 334.04C349.957 334.707 350.25 335.173 350.677 335.44C351.13 335.707 351.837 335.84 352.797 335.84C354.77 335.84 357.637 335.48 361.397 334.76C361.503 334.733 361.677 334.72 361.917 334.72C362.53 334.72 362.997 334.933 363.317 335.36C363.663 335.787 363.837 336.307 363.837 336.92C363.837 338.093 362.97 338.853 361.237 339.2C359.77 339.493 358.45 339.72 357.277 339.88C356.103 340.013 354.797 340.08 353.357 340.08ZM377.698 340.32C375.351 340.32 373.351 339.867 371.698 338.96C370.071 338.027 368.844 336.773 368.018 335.2C367.191 333.6 366.778 331.813 366.778 329.84C366.778 327.867 367.231 326.093 368.138 324.52C369.071 322.92 370.338 321.68 371.938 320.8C373.564 319.893 375.391 319.44 377.418 319.44C379.258 319.44 380.911 319.8 382.378 320.52C383.844 321.24 385.004 322.267 385.858 323.6C386.711 324.933 387.138 326.48 387.138 328.24C387.138 329.28 386.964 330.027 386.618 330.48C386.298 330.907 385.684 331.12 384.778 331.12L371.058 331.24C371.058 331.987 371.311 332.76 371.818 333.56C372.324 334.36 373.071 335.04 374.058 335.6C375.044 336.133 376.204 336.4 377.538 336.4C378.444 336.4 379.204 336.293 379.818 336.08C380.458 335.84 380.978 335.56 381.378 335.24C381.778 334.92 382.244 334.48 382.778 333.92C383.178 333.52 383.618 333.32 384.098 333.32C384.604 333.32 385.084 333.52 385.538 333.92C386.018 334.32 386.258 334.773 386.258 335.28C386.258 335.653 386.111 336.067 385.818 336.52C385.178 337.48 384.204 338.36 382.898 339.16C381.618 339.933 379.884 340.32 377.698 340.32ZM382.618 327.92C382.831 327.92 382.964 327.88 383.018 327.8C383.098 327.72 383.138 327.573 383.138 327.36C383.138 326.133 382.591 325.12 381.498 324.32C380.404 323.52 379.044 323.12 377.418 323.12C376.164 323.12 375.044 323.4 374.058 323.96C373.098 324.493 372.351 325.16 371.818 325.96C371.311 326.733 371.058 327.427 371.058 328.04L382.618 327.92ZM410.478 336.16C410.931 336.24 411.278 336.413 411.518 336.68C411.785 336.92 411.918 337.36 411.918 338C411.918 338.56 411.771 339.027 411.478 339.4C411.185 339.773 410.798 339.96 410.318 339.96C409.171 339.96 408.305 339.813 407.718 339.52C407.131 339.227 406.611 338.68 406.158 337.88C405.038 339.56 403.011 340.4 400.078 340.4C397.011 340.4 394.718 339.507 393.198 337.72C391.678 335.907 390.918 333.533 390.918 330.6C390.918 328.653 391.305 326.893 392.078 325.32C392.878 323.747 394.011 322.507 395.478 321.6C396.945 320.693 398.638 320.24 400.558 320.24C401.651 320.24 402.638 320.467 403.518 320.92C404.398 321.347 405.065 321.92 405.518 322.64L405.638 321.8C405.665 321.427 405.838 321.107 406.158 320.84C406.478 320.573 406.985 320.44 407.678 320.44C408.478 320.44 409.051 320.627 409.398 321C409.771 321.373 409.918 321.84 409.838 322.4C409.678 323.253 409.505 324.76 409.318 326.92C409.238 327.987 409.198 329.36 409.198 331.04V332.92C409.198 334.04 409.265 334.853 409.398 335.36C409.531 335.84 409.891 336.107 410.478 336.16ZM404.478 332.88C404.505 331.733 404.518 330.067 404.518 327.88C404.518 326.653 404.118 325.707 403.318 325.04C402.545 324.373 401.651 324.04 400.638 324.04C399.171 324.04 397.998 324.68 397.118 325.96C396.238 327.24 395.798 328.773 395.798 330.56C395.798 332.293 396.185 333.733 396.958 334.88C397.731 336.027 398.865 336.6 400.358 336.6C401.585 336.6 402.571 336.28 403.318 335.64C404.065 335 404.451 334.08 404.478 332.88ZM426.846 319.32C428.499 319.32 429.872 319.867 430.966 320.96C432.059 322.053 432.606 323.453 432.606 325.16C432.606 326.813 432.072 328.093 431.006 329C429.966 329.907 428.619 330.36 426.966 330.36C426.166 330.36 425.606 330.24 425.286 330C424.966 329.733 424.806 329.32 424.806 328.76C424.806 328.227 424.912 327.853 425.126 327.64C425.366 327.4 425.699 327.253 426.126 327.2C427.752 327.013 428.566 326.293 428.566 325.04C428.566 324.453 428.406 323.973 428.086 323.6C427.792 323.227 427.352 323.04 426.766 323.04C425.939 323.04 425.179 323.467 424.486 324.32C423.819 325.147 423.272 326.147 422.846 327.32C422.446 328.493 422.192 329.547 422.086 330.48C421.926 332.107 421.846 334.267 421.846 336.96C421.846 338.293 421.672 339.2 421.326 339.68C420.979 340.133 420.366 340.36 419.486 340.36C418.632 340.36 418.006 340.187 417.606 339.84C417.206 339.493 416.992 338.947 416.966 338.2V331.32C416.966 329.853 416.926 328.547 416.846 327.4C416.792 326.253 416.686 324.867 416.526 323.24L416.286 320.76C416.232 320.173 416.419 319.707 416.846 319.36C417.272 318.987 417.859 318.8 418.606 318.8C419.859 318.8 420.539 319.387 420.646 320.56C420.699 321.493 420.752 322.64 420.806 324C421.312 322.613 422.086 321.493 423.126 320.64C424.166 319.76 425.406 319.32 426.846 319.32ZM447.632 319.6C449.925 319.6 451.698 320.413 452.952 322.04C454.205 323.64 454.832 326.04 454.832 329.24L454.792 338.4C454.792 338.933 454.565 339.333 454.112 339.6C453.658 339.867 453.085 340 452.392 340C451.698 340 451.112 339.88 450.632 339.64C450.152 339.4 449.912 339.04 449.912 338.56V329.2C449.912 327.147 449.685 325.68 449.232 324.8C448.778 323.893 448.018 323.44 446.952 323.44C445.938 323.44 445.125 323.867 444.512 324.72C443.898 325.547 443.418 326.92 443.072 328.84C442.885 330.013 442.792 331.347 442.792 332.84L442.832 338.24C442.832 338.827 442.605 339.28 442.152 339.6C441.725 339.893 441.138 340.04 440.392 340.04C439.645 340.04 439.045 339.88 438.592 339.56C438.165 339.24 437.952 338.8 437.952 338.24C437.952 333.76 437.858 329.333 437.672 324.96C437.672 324.533 437.605 324.16 437.472 323.84C437.338 323.52 437.178 323.227 436.992 322.96C436.832 322.693 436.725 322.507 436.672 322.4C436.512 322.187 436.432 321.933 436.432 321.64C436.432 321.16 436.712 320.707 437.272 320.28C437.858 319.853 438.405 319.64 438.912 319.64C439.178 319.64 439.432 319.72 439.672 319.88C439.912 320.04 440.178 320.32 440.472 320.72C441.112 321.573 441.432 322.373 441.432 323.12V323.44C441.912 322.347 442.645 321.44 443.632 320.72C444.645 319.973 445.978 319.6 447.632 319.6ZM481.834 310.4C483.807 310.4 485.327 310.947 486.394 312.04C487.487 313.133 488.034 314.653 488.034 316.6C488.034 317.48 487.834 318.133 487.434 318.56C487.061 318.96 486.461 319.16 485.634 319.16C484.834 319.16 484.234 318.987 483.834 318.64C483.461 318.293 483.247 317.773 483.194 317.08C483.194 317 483.181 316.68 483.154 316.12C483.154 315.533 483.034 315.093 482.794 314.8C482.554 314.48 482.194 314.32 481.714 314.32C481.261 314.32 480.914 314.467 480.674 314.76C480.434 315.053 480.261 315.52 480.154 316.16C480.074 316.8 480.021 317.733 479.994 318.96V323.2H482.474C483.594 323.2 484.154 323.827 484.154 325.08C484.154 326.253 483.581 326.84 482.434 326.84L480.034 326.88L480.154 333.48C480.207 335.613 480.234 337.107 480.234 337.96C480.234 338.6 480.007 339.107 479.554 339.48C479.101 339.827 478.527 340 477.834 340C477.114 340 476.541 339.827 476.114 339.48C475.687 339.107 475.461 338.627 475.434 338.04L475.234 327C474.941 327.027 474.474 327.04 473.834 327.04C473.061 327.04 472.514 326.88 472.194 326.56C471.874 326.24 471.714 325.76 471.714 325.12C471.714 324.533 471.847 324.08 472.114 323.76C472.381 323.413 472.887 323.24 473.634 323.24C474.274 323.24 474.781 323.227 475.154 323.2L475.114 318.76C475.114 316.12 475.687 314.067 476.834 312.6C477.981 311.133 479.647 310.4 481.834 310.4ZM500.596 319.32C502.249 319.32 503.622 319.867 504.716 320.96C505.809 322.053 506.356 323.453 506.356 325.16C506.356 326.813 505.822 328.093 504.756 329C503.716 329.907 502.369 330.36 500.716 330.36C499.916 330.36 499.356 330.24 499.036 330C498.716 329.733 498.556 329.32 498.556 328.76C498.556 328.227 498.662 327.853 498.876 327.64C499.116 327.4 499.449 327.253 499.876 327.2C501.502 327.013 502.316 326.293 502.316 325.04C502.316 324.453 502.156 323.973 501.836 323.6C501.542 323.227 501.102 323.04 500.516 323.04C499.689 323.04 498.929 323.467 498.236 324.32C497.569 325.147 497.022 326.147 496.596 327.32C496.196 328.493 495.942 329.547 495.836 330.48C495.676 332.107 495.596 334.267 495.596 336.96C495.596 338.293 495.422 339.2 495.076 339.68C494.729 340.133 494.116 340.36 493.236 340.36C492.382 340.36 491.756 340.187 491.356 339.84C490.956 339.493 490.742 338.947 490.716 338.2V331.32C490.716 329.853 490.676 328.547 490.596 327.4C490.542 326.253 490.436 324.867 490.276 323.24L490.036 320.76C489.982 320.173 490.169 319.707 490.596 319.36C491.022 318.987 491.609 318.8 492.356 318.8C493.609 318.8 494.289 319.387 494.396 320.56C494.449 321.493 494.502 322.64 494.556 324C495.062 322.613 495.836 321.493 496.876 320.64C497.916 319.76 499.156 319.32 500.596 319.32ZM520.222 340.08C516.968 340.08 514.342 339.227 512.342 337.52C510.368 335.813 509.382 333.32 509.382 330.04C509.382 327.933 509.808 326.08 510.662 324.48C511.515 322.853 512.742 321.587 514.342 320.68C515.942 319.773 517.822 319.32 519.982 319.32C522.115 319.32 524.008 319.773 525.662 320.68C527.342 321.587 528.635 322.867 529.542 324.52C530.475 326.147 530.942 328.04 530.942 330.2C530.942 333.373 529.968 335.813 528.022 337.52C526.075 339.227 523.475 340.08 520.222 340.08ZM520.142 336.28C521.955 336.28 523.382 335.773 524.422 334.76C525.488 333.72 526.022 332.187 526.022 330.16C526.022 328.133 525.502 326.453 524.462 325.12C523.422 323.787 521.982 323.12 520.142 323.12C518.355 323.12 516.928 323.747 515.862 325C514.795 326.253 514.262 327.933 514.262 330.04C514.262 332.147 514.795 333.72 515.862 334.76C516.955 335.773 518.382 336.28 520.142 336.28ZM554.604 319.76C559.271 319.76 561.604 322.973 561.604 329.4L561.564 338.16C561.564 338.693 561.351 339.133 560.924 339.48C560.524 339.827 559.991 340 559.324 340C558.604 340 558.017 339.827 557.564 339.48C557.111 339.133 556.884 338.653 556.884 338.04V329.6C556.884 327.387 556.671 325.8 556.244 324.84C555.844 323.853 555.151 323.36 554.164 323.36C553.311 323.36 552.631 323.933 552.124 325.08C551.617 326.2 551.351 327.707 551.324 329.6V332.48V338.04C551.324 339.293 550.564 339.92 549.044 339.92C547.417 339.92 546.604 339.267 546.604 337.96L546.644 329.6C546.617 327.707 546.351 326.227 545.844 325.16C545.337 324.093 544.617 323.56 543.684 323.56C543.017 323.56 542.391 323.96 541.804 324.76C541.244 325.56 540.804 326.76 540.484 328.36C540.271 329.4 540.164 330.587 540.164 331.92L540.204 335.52V338.32C540.204 338.853 539.964 339.267 539.484 339.56C539.031 339.827 538.471 339.96 537.804 339.96C537.191 339.933 536.671 339.773 536.244 339.48C535.817 339.187 535.604 338.787 535.604 338.28L535.564 325.36C535.564 324.72 535.511 324.253 535.404 323.96C535.297 323.667 535.124 323.387 534.884 323.12C534.831 323.067 534.737 322.987 534.604 322.88C534.497 322.773 534.417 322.667 534.364 322.56C534.311 322.453 534.284 322.333 534.284 322.2C534.284 321.587 534.511 321.093 534.964 320.72C535.417 320.347 535.911 320.16 536.444 320.16C536.951 320.16 537.497 320.533 538.084 321.28C538.564 321.947 538.804 322.64 538.804 323.36V323.64C539.284 322.52 539.937 321.613 540.764 320.92C541.617 320.227 542.671 319.88 543.924 319.88C545.257 319.88 546.311 320.187 547.084 320.8C547.884 321.387 548.484 322.227 548.884 323.32C549.417 322.173 550.164 321.293 551.124 320.68C552.111 320.067 553.271 319.76 554.604 319.76ZM590.588 340.32C588.241 340.32 586.241 339.867 584.588 338.96C582.961 338.027 581.735 336.773 580.908 335.2C580.081 333.6 579.668 331.813 579.668 329.84C579.668 327.867 580.121 326.093 581.028 324.52C581.961 322.92 583.228 321.68 584.828 320.8C586.455 319.893 588.281 319.44 590.308 319.44C592.148 319.44 593.801 319.8 595.268 320.52C596.735 321.24 597.895 322.267 598.748 323.6C599.601 324.933 600.028 326.48 600.028 328.24C600.028 329.28 599.855 330.027 599.508 330.48C599.188 330.907 598.575 331.12 597.668 331.12L583.948 331.24C583.948 331.987 584.201 332.76 584.708 333.56C585.215 334.36 585.961 335.04 586.948 335.6C587.935 336.133 589.095 336.4 590.428 336.4C591.335 336.4 592.095 336.293 592.708 336.08C593.348 335.84 593.868 335.56 594.268 335.24C594.668 334.92 595.135 334.48 595.668 333.92C596.068 333.52 596.508 333.32 596.988 333.32C597.495 333.32 597.975 333.52 598.428 333.92C598.908 334.32 599.148 334.773 599.148 335.28C599.148 335.653 599.001 336.067 598.708 336.52C598.068 337.48 597.095 338.36 595.788 339.16C594.508 339.933 592.775 340.32 590.588 340.32ZM595.508 327.92C595.721 327.92 595.855 327.88 595.908 327.8C595.988 327.72 596.028 327.573 596.028 327.36C596.028 326.133 595.481 325.12 594.388 324.32C593.295 323.52 591.935 323.12 590.308 323.12C589.055 323.12 587.935 323.4 586.948 323.96C585.988 324.493 585.241 325.16 584.708 325.96C584.201 326.733 583.948 327.427 583.948 328.04L595.508 327.92ZM612.569 339.92C611.342 339.92 610.182 339.187 609.089 337.72C608.022 336.253 606.995 334.107 606.009 331.28C605.369 329.547 604.822 327.773 604.369 325.96C603.915 324.12 603.689 322.813 603.689 322.04C603.689 321.347 603.915 320.813 604.369 320.44C604.822 320.04 605.409 319.84 606.129 319.84C606.769 319.84 607.302 320 607.729 320.32C608.182 320.64 608.462 321.093 608.569 321.68C608.942 324.32 609.475 326.84 610.169 329.24C610.595 330.68 611.049 331.96 611.529 333.08C612.009 334.2 612.342 334.76 612.529 334.76C612.769 334.76 613.169 334.16 613.729 332.96C614.315 331.733 614.795 330.467 615.169 329.16C615.755 327.107 616.155 325.587 616.369 324.6C616.582 323.613 616.742 322.6 616.849 321.56C616.929 321 617.182 320.547 617.609 320.2C618.062 319.827 618.635 319.64 619.329 319.64C620.049 319.64 620.622 319.84 621.049 320.24C621.502 320.64 621.729 321.2 621.729 321.92C621.729 322.72 621.502 323.987 621.049 325.72C620.622 327.427 620.049 329.24 619.329 331.16C618.235 334.04 617.142 336.227 616.049 337.72C614.955 339.187 613.795 339.92 612.569 339.92ZM636.252 340.32C633.906 340.32 631.906 339.867 630.252 338.96C628.626 338.027 627.399 336.773 626.572 335.2C625.746 333.6 625.332 331.813 625.332 329.84C625.332 327.867 625.786 326.093 626.692 324.52C627.626 322.92 628.892 321.68 630.492 320.8C632.119 319.893 633.946 319.44 635.972 319.44C637.812 319.44 639.466 319.8 640.932 320.52C642.399 321.24 643.559 322.267 644.412 323.6C645.266 324.933 645.692 326.48 645.692 328.24C645.692 329.28 645.519 330.027 645.172 330.48C644.852 330.907 644.239 331.12 643.332 331.12L629.612 331.24C629.612 331.987 629.866 332.76 630.372 333.56C630.879 334.36 631.626 335.04 632.612 335.6C633.599 336.133 634.759 336.4 636.092 336.4C636.999 336.4 637.759 336.293 638.372 336.08C639.012 335.84 639.532 335.56 639.932 335.24C640.332 334.92 640.799 334.48 641.332 333.92C641.732 333.52 642.172 333.32 642.652 333.32C643.159 333.32 643.639 333.52 644.092 333.92C644.572 334.32 644.812 334.773 644.812 335.28C644.812 335.653 644.666 336.067 644.372 336.52C643.732 337.48 642.759 338.36 641.452 339.16C640.172 339.933 638.439 340.32 636.252 340.32ZM641.172 327.92C641.386 327.92 641.519 327.88 641.572 327.8C641.652 327.72 641.692 327.573 641.692 327.36C641.692 326.133 641.146 325.12 640.052 324.32C638.959 323.52 637.599 323.12 635.972 323.12C634.719 323.12 633.599 323.4 632.612 323.96C631.652 324.493 630.906 325.16 630.372 325.96C629.866 326.733 629.612 327.427 629.612 328.04L641.172 327.92ZM660.713 319.32C662.366 319.32 663.739 319.867 664.833 320.96C665.926 322.053 666.473 323.453 666.473 325.16C666.473 326.813 665.939 328.093 664.873 329C663.833 329.907 662.486 330.36 660.833 330.36C660.033 330.36 659.473 330.24 659.153 330C658.833 329.733 658.673 329.32 658.673 328.76C658.673 328.227 658.779 327.853 658.993 327.64C659.233 327.4 659.566 327.253 659.993 327.2C661.619 327.013 662.433 326.293 662.433 325.04C662.433 324.453 662.273 323.973 661.953 323.6C661.659 323.227 661.219 323.04 660.633 323.04C659.806 323.04 659.046 323.467 658.353 324.32C657.686 325.147 657.139 326.147 656.713 327.32C656.313 328.493 656.059 329.547 655.953 330.48C655.793 332.107 655.713 334.267 655.713 336.96C655.713 338.293 655.539 339.2 655.193 339.68C654.846 340.133 654.233 340.36 653.353 340.36C652.499 340.36 651.873 340.187 651.473 339.84C651.073 339.493 650.859 338.947 650.833 338.2V331.32C650.833 329.853 650.793 328.547 650.713 327.4C650.659 326.253 650.553 324.867 650.393 323.24L650.153 320.76C650.099 320.173 650.286 319.707 650.713 319.36C651.139 318.987 651.726 318.8 652.473 318.8C653.726 318.8 654.406 319.387 654.513 320.56C654.566 321.493 654.619 322.64 654.673 324C655.179 322.613 655.953 321.493 656.993 320.64C658.033 319.76 659.273 319.32 660.713 319.32ZM677.379 350.48C676.605 350.48 675.979 350.267 675.499 349.84C675.019 349.44 674.779 348.933 674.779 348.32C674.779 348.107 674.832 347.813 674.939 347.44C675.605 345.76 676.699 342.733 678.219 338.36C676.992 337.507 675.805 336.133 674.659 334.24C673.512 332.347 672.512 330.307 671.659 328.12C670.832 325.907 670.245 323.933 669.899 322.2C669.845 321.987 669.819 321.747 669.819 321.48C669.819 320.867 670.019 320.4 670.419 320.08C670.845 319.76 671.405 319.6 672.099 319.6C672.765 319.6 673.232 319.733 673.499 320C673.765 320.24 673.952 320.613 674.059 321.12C674.939 324.373 675.872 327.12 676.859 329.36C677.872 331.573 678.872 333.027 679.859 333.72C680.525 331.453 681.272 328.72 682.099 325.52L683.299 320.96C683.432 320.427 683.645 320.053 683.939 319.84C684.232 319.627 684.672 319.52 685.259 319.52C686.032 319.52 686.659 319.693 687.139 320.04C687.619 320.36 687.872 320.8 687.899 321.36C687.899 321.547 687.885 321.693 687.859 321.8C686.499 327.267 685.085 332.267 683.619 336.8C681.699 342.747 680.299 346.813 679.419 349C679.205 349.48 678.952 349.84 678.659 350.08C678.392 350.347 677.965 350.48 677.379 350.48ZM701.745 340.08C698.492 340.08 695.865 339.227 693.865 337.52C691.892 335.813 690.905 333.32 690.905 330.04C690.905 327.933 691.332 326.08 692.185 324.48C693.038 322.853 694.265 321.587 695.865 320.68C697.465 319.773 699.345 319.32 701.505 319.32C703.638 319.32 705.532 319.773 707.185 320.68C708.865 321.587 710.158 322.867 711.065 324.52C711.998 326.147 712.465 328.04 712.465 330.2C712.465 333.373 711.492 335.813 709.545 337.52C707.598 339.227 704.998 340.08 701.745 340.08ZM701.665 336.28C703.478 336.28 704.905 335.773 705.945 334.76C707.012 333.72 707.545 332.187 707.545 330.16C707.545 328.133 707.025 326.453 705.985 325.12C704.945 323.787 703.505 323.12 701.665 323.12C699.878 323.12 698.452 323.747 697.385 325C696.318 326.253 695.785 327.933 695.785 330.04C695.785 332.147 696.318 333.72 697.385 334.76C698.478 335.773 699.905 336.28 701.665 336.28ZM726.968 319.6C729.261 319.6 731.034 320.413 732.288 322.04C733.541 323.64 734.168 326.04 734.168 329.24L734.128 338.4C734.128 338.933 733.901 339.333 733.448 339.6C732.994 339.867 732.421 340 731.728 340C731.034 340 730.448 339.88 729.968 339.64C729.488 339.4 729.248 339.04 729.248 338.56V329.2C729.248 327.147 729.021 325.68 728.568 324.8C728.114 323.893 727.354 323.44 726.288 323.44C725.274 323.44 724.461 323.867 723.848 324.72C723.234 325.547 722.754 326.92 722.408 328.84C722.221 330.013 722.128 331.347 722.128 332.84L722.168 338.24C722.168 338.827 721.941 339.28 721.488 339.6C721.061 339.893 720.474 340.04 719.728 340.04C718.981 340.04 718.381 339.88 717.928 339.56C717.501 339.24 717.288 338.8 717.288 338.24C717.288 333.76 717.194 329.333 717.008 324.96C717.008 324.533 716.941 324.16 716.808 323.84C716.674 323.52 716.514 323.227 716.327 322.96C716.168 322.693 716.061 322.507 716.008 322.4C715.848 322.187 715.768 321.933 715.768 321.64C715.768 321.16 716.048 320.707 716.608 320.28C717.194 319.853 717.741 319.64 718.248 319.64C718.514 319.64 718.768 319.72 719.008 319.88C719.248 320.04 719.514 320.32 719.808 320.72C720.448 321.573 720.768 322.373 720.768 323.12V323.44C721.248 322.347 721.981 321.44 722.968 320.72C723.981 319.973 725.314 319.6 726.968 319.6ZM749.143 340.32C746.796 340.32 744.796 339.867 743.143 338.96C741.516 338.027 740.289 336.773 739.463 335.2C738.636 333.6 738.223 331.813 738.223 329.84C738.223 327.867 738.676 326.093 739.583 324.52C740.516 322.92 741.783 321.68 743.383 320.8C745.009 319.893 746.836 319.44 748.863 319.44C750.703 319.44 752.356 319.8 753.823 320.52C755.289 321.24 756.449 322.267 757.303 323.6C758.156 324.933 758.583 326.48 758.583 328.24C758.583 329.28 758.409 330.027 758.063 330.48C757.743 330.907 757.129 331.12 756.223 331.12L742.503 331.24C742.503 331.987 742.756 332.76 743.263 333.56C743.769 334.36 744.516 335.04 745.503 335.6C746.489 336.133 747.649 336.4 748.983 336.4C749.889 336.4 750.649 336.293 751.263 336.08C751.903 335.84 752.423 335.56 752.823 335.24C753.223 334.92 753.689 334.48 754.223 333.92C754.623 333.52 755.063 333.32 755.543 333.32C756.049 333.32 756.529 333.52 756.983 333.92C757.463 334.32 757.703 334.773 757.703 335.28C757.703 335.653 757.556 336.067 757.263 336.52C756.623 337.48 755.649 338.36 754.343 339.16C753.063 339.933 751.329 340.32 749.143 340.32ZM754.063 327.92C754.276 327.92 754.409 327.88 754.463 327.8C754.543 327.72 754.583 327.573 754.583 327.36C754.583 326.133 754.036 325.12 752.943 324.32C751.849 323.52 750.489 323.12 748.863 323.12C747.609 323.12 746.489 323.4 745.503 323.96C744.543 324.493 743.796 325.16 743.263 325.96C742.756 326.733 742.503 327.427 742.503 328.04L754.063 327.92Z" fill="#2512A6"/>
</svg>
